<svg width="909" height="670" viewBox="0 0 909 670" fill="none" xmlns="http://www.w3.org/2000/svg">
<path d="M686.849 326.092C661.516 314.155 646.257 315.741 632.331 316.552C620.123 317.821 609.113 318.602 592.489 310.768C575.864 302.934 570.249 294.319 562.665 283.724C554.561 272.18 545.935 259.689 520.602 247.752C495.269 235.814 480.01 237.401 466.084 238.212C453.876 239.481 442.867 240.261 426.242 232.427C409.617 224.593 404.002 215.979 396.418 205.383C388.314 193.84 379.688 181.349 354.355 169.411C329.022 157.474 313.763 159.061 299.837 159.871C287.629 161.141 276.62 161.921 259.995 154.087C244.162 146.626 237.755 137.638 230.171 127.043C222.067 115.499 213.441 103.009 188.108 91.0709C162.776 79.1333 147.516 80.7201 133.59 81.5307C121.382 82.8001 110.373 83.5806 93.7481 75.7466C77.9151 68.2856 71.5084 59.2979 63.9246 48.7023C55.8199 37.159 47.1944 24.6681 21.8615 12.7305C17.1116 10.4922 13.4035 10.1492 12.5912 11.873C11.7789 13.5968 14.4039 16.2382 19.1538 18.4765C34.9869 25.9375 41.3935 34.9251 48.9773 45.5208C57.082 57.064 65.7076 69.555 91.0404 81.4926C116.373 93.4301 131.633 91.8434 145.559 91.0328C157.766 89.7634 168.776 88.9829 185.401 96.8169C202.025 104.651 207.64 113.266 215.224 123.861C223.329 135.404 231.954 147.895 257.287 159.833C282.62 171.771 297.88 170.184 311.806 169.373C324.013 168.104 335.023 167.323 351.648 175.157C368.272 182.991 373.887 191.606 381.471 202.202C389.576 213.745 398.201 226.236 423.534 238.173C448.867 250.111 464.126 248.524 478.053 247.714C490.26 246.444 501.27 245.664 517.894 253.498C534.519 261.332 540.134 269.946 547.718 280.542C555.823 292.085 564.448 304.576 589.781 316.514C615.114 328.451 630.373 326.865 644.299 326.054C656.507 324.785 667.517 324.004 684.141 331.838C688.891 334.077 692.599 334.42 693.412 332.696C694.224 330.972 691.599 328.331 686.849 326.092Z" stroke="url(#paint0_linear_21_17)" stroke-width="21"/>
<path d="M714.848 636.092C689.516 624.155 674.256 625.741 660.33 626.552C648.123 627.821 637.113 628.602 620.488 620.768C603.864 612.934 598.249 604.319 590.665 593.724C582.56 582.18 573.934 569.689 548.602 557.752C523.269 545.814 508.009 547.401 494.083 548.212C481.876 549.481 470.866 550.261 454.241 542.427C437.617 534.593 432.002 525.979 424.418 515.383C416.313 503.84 407.688 491.349 382.355 479.411C357.022 467.474 341.763 469.061 327.836 469.871C315.629 471.141 304.619 471.921 287.994 464.087C272.161 456.626 265.755 447.638 258.171 437.043C250.066 425.499 241.441 413.009 216.108 401.071C190.775 389.133 175.516 390.72 161.589 391.531C149.382 392.8 138.372 393.581 121.748 385.747C105.915 378.286 99.5079 369.298 91.9241 358.702C83.8195 347.159 75.1939 334.668 49.861 322.73C45.1111 320.492 41.403 320.149 40.5907 321.873C39.7784 323.597 42.4034 326.238 47.1534 328.476C62.9864 335.937 69.393 344.925 76.9768 355.521C85.0815 367.064 93.7071 379.555 119.04 391.493C144.373 403.43 159.632 401.843 173.558 401.033C185.766 399.763 196.776 398.983 213.4 406.817C230.025 414.651 235.64 423.266 243.224 433.861C251.328 445.404 259.954 457.895 285.287 469.833C310.62 481.771 325.879 480.184 339.805 479.373C352.013 478.104 363.022 477.323 379.647 485.157C396.272 492.991 401.887 501.606 409.471 512.202C417.575 523.745 426.201 536.236 451.534 548.173C476.867 560.111 492.126 558.524 506.052 557.714C518.26 556.444 529.269 555.664 545.894 563.498C562.519 571.332 568.134 579.946 575.717 590.542C583.822 602.085 592.448 614.576 617.781 626.514C643.113 638.451 658.373 636.865 672.299 636.054C684.506 634.785 695.516 634.004 712.141 641.838C716.891 644.077 720.599 644.42 721.411 642.696C722.223 640.972 719.598 638.331 714.848 636.092Z" stroke="url(#paint1_linear_21_17)" stroke-width="21"/>
<path d="M890.848 570.092C865.516 558.155 850.256 559.741 836.33 560.552C824.123 561.821 813.113 562.602 796.488 554.768C779.864 546.934 774.249 538.319 766.665 527.724C758.56 516.18 749.934 503.689 724.602 491.752C699.269 479.814 684.009 481.401 670.083 482.212C657.876 483.481 646.866 484.261 630.241 476.427C613.617 468.593 608.002 459.979 600.418 449.383C592.313 437.84 583.688 425.349 558.355 413.411C533.022 401.474 517.763 403.061 503.836 403.871C491.629 405.141 480.619 405.921 463.994 398.087C448.161 390.626 441.755 381.638 434.171 371.043C426.066 359.499 417.441 347.009 392.108 335.071C366.775 323.133 351.516 324.72 337.589 325.531C325.382 326.8 314.372 327.581 297.748 319.747C281.915 312.286 275.508 303.298 267.924 292.702C259.819 281.159 251.194 268.668 225.861 256.73C221.111 254.492 217.403 254.149 216.591 255.873C215.778 257.597 218.403 260.238 223.153 262.476C238.986 269.937 245.393 278.925 252.977 289.521C261.082 301.064 269.707 313.555 295.04 325.493C320.373 337.43 335.632 335.843 349.558 335.033C361.766 333.763 372.776 332.983 389.4 340.817C406.025 348.651 411.64 357.266 419.224 367.861C427.328 379.404 435.954 391.895 461.287 403.833C486.62 415.771 501.879 414.184 515.805 413.373C528.013 412.104 539.022 411.323 555.647 419.157C572.272 426.991 577.887 435.606 585.471 446.202C593.575 457.745 602.201 470.236 627.534 482.173C652.867 494.111 668.126 492.524 682.052 491.714C694.26 490.444 705.269 489.664 721.894 497.498C738.519 505.332 744.134 513.946 751.717 524.542C759.822 536.085 768.448 548.576 793.781 560.514C819.113 572.451 834.373 570.865 848.299 570.054C860.506 568.785 871.516 568.004 888.141 575.838C892.891 578.077 896.599 578.42 897.411 576.696C898.223 574.972 895.598 572.331 890.848 570.092Z" stroke="url(#paint2_linear_21_17)" stroke-width="21"/>
<defs>
<linearGradient id="paint0_linear_21_17" x1="354.355" y1="169.411" x2="340.411" y2="199.003" gradientUnits="userSpaceOnUse">
<stop stop-color="#47004C" stop-opacity="0.61"/>
<stop offset="1" stop-color="#770080"/>
</linearGradient>
<linearGradient id="paint1_linear_21_17" x1="382.355" y1="479.411" x2="368.41" y2="509.003" gradientUnits="userSpaceOnUse">
<stop stop-color="#47004C" stop-opacity="0.61"/>
<stop offset="1" stop-color="#770080"/>
</linearGradient>
<linearGradient id="paint2_linear_21_17" x1="558.355" y1="413.411" x2="544.41" y2="443.003" gradientUnits="userSpaceOnUse">
<stop stop-color="#47004C" stop-opacity="0.61"/>
<stop offset="1" stop-color="#770080"/>
</linearGradient>
</defs>
</svg>
