<svg width="30" height="30" viewBox="0 0 30 30" fill="none" xmlns="http://www.w3.org/2000/svg">
<path d="M25.6251 7.5H4.375" stroke="#EE07FF" stroke-width="1.5" stroke-linecap="round"/>
<path d="M23.5415 10.625L22.9665 19.2489C22.7452 22.5675 22.6346 24.2269 21.5534 25.2384C20.4721 26.25 18.8091 26.25 15.4831 26.25H14.5165C11.1904 26.25 9.52743 26.25 8.44617 25.2384C7.36492 24.2269 7.2543 22.5675 7.03305 19.2489L6.45812 10.625" stroke="#EE07FF" stroke-width="1.5" stroke-linecap="round"/>
<path d="M8.125 7.5C8.19485 7.5 8.22977 7.5 8.26144 7.4992C9.29074 7.47311 10.1988 6.81864 10.549 5.8504C10.5598 5.82061 10.5708 5.78749 10.5929 5.72121L10.7143 5.35714C10.8179 5.04635 10.8697 4.89095 10.9384 4.759C11.2125 4.23259 11.7197 3.86705 12.3058 3.77346C12.4527 3.75 12.6165 3.75 12.9441 3.75H17.0559C17.3835 3.75 17.5474 3.75 17.6943 3.77346C18.2804 3.86705 18.7875 4.23259 19.0616 4.759C19.1304 4.89095 19.1821 5.04635 19.2858 5.35714L19.4071 5.72121C19.4291 5.7874 19.4402 5.82064 19.451 5.8504C19.8012 6.81864 20.7092 7.47311 21.7386 7.4992C21.7702 7.5 21.8051 7.5 21.875 7.5" stroke="#EE07FF" stroke-width="1.5"/>
</svg>
