<svg width="140" height="40" viewBox="0 0 192 60" fill="none" xmlns="http://www.w3.org/2000/svg">
<path d="M23.88 24.96C23.88 26.5867 23.5067 28.08 22.76 29.44C22.0133 30.7733 20.8667 31.8533 19.32 32.68C17.7733 33.5067 15.8533 33.92 13.56 33.92H9.32V44H2.48V15.92H13.56C15.8 15.92 17.6933 16.3067 19.24 17.08C20.7867 17.8533 21.9467 18.92 22.72 20.28C23.4933 21.64 23.88 23.2 23.88 24.96ZM13.04 28.48C14.3467 28.48 15.32 28.1733 15.96 27.56C16.6 26.9467 16.92 26.08 16.92 24.96C16.92 23.84 16.6 22.9733 15.96 22.36C15.32 21.7467 14.3467 21.44 13.04 21.44H9.32V28.48H13.04ZM34.2809 14.4V44H27.4409V14.4H34.2809ZM37.8778 32.8C37.8778 30.5067 38.3045 28.4933 39.1578 26.76C40.0378 25.0267 41.2245 23.6933 42.7178 22.76C44.2111 21.8267 45.8778 21.36 47.7178 21.36C49.2911 21.36 50.6645 21.68 51.8378 22.32C53.0378 22.96 53.9578 23.8 54.5978 24.84V21.68H61.4378V44H54.5978V40.84C53.9311 41.88 52.9978 42.72 51.7978 43.36C50.6245 44 49.2511 44.32 47.6778 44.32C45.8645 44.32 44.2111 43.8533 42.7178 42.92C41.2245 41.96 40.0378 40.6133 39.1578 38.88C38.3045 37.12 37.8778 35.0933 37.8778 32.8ZM54.5978 32.84C54.5978 31.1333 54.1178 29.7867 53.1578 28.8C52.2245 27.8133 51.0778 27.32 49.7178 27.32C48.3578 27.32 47.1978 27.8133 46.2378 28.8C45.3045 29.76 44.8378 31.0933 44.8378 32.8C44.8378 34.5067 45.3045 35.8667 46.2378 36.88C47.1978 37.8667 48.3578 38.36 49.7178 38.36C51.0778 38.36 52.2245 37.8667 53.1578 36.88C54.1178 35.8933 54.5978 34.5467 54.5978 32.84ZM79.9863 21.44C82.5996 21.44 84.6796 22.2933 86.2263 24C87.7996 25.68 88.5863 28 88.5863 30.96V44H81.7863V31.88C81.7863 30.3867 81.3996 29.2267 80.6263 28.4C79.8529 27.5733 78.8129 27.16 77.5063 27.16C76.1996 27.16 75.1596 27.5733 74.3863 28.4C73.6129 29.2267 73.2263 30.3867 73.2263 31.88V44H66.3863V21.68H73.2263V24.64C73.9196 23.6533 74.8529 22.88 76.0263 22.32C77.1996 21.7333 78.5196 21.44 79.9863 21.44ZM100.059 15.92V32.72C100.059 34.4 100.473 35.6933 101.299 36.6C102.126 37.5067 103.339 37.96 104.939 37.96C106.539 37.96 107.766 37.5067 108.619 36.6C109.473 35.6933 109.899 34.4 109.899 32.72V15.92H116.739V32.68C116.739 35.1867 116.206 37.3067 115.139 39.04C114.073 40.7733 112.633 42.08 110.819 42.96C109.033 43.84 107.033 44.28 104.819 44.28C102.606 44.28 100.619 43.8533 98.8594 43C97.126 42.12 95.7527 40.8133 94.7394 39.08C93.726 37.32 93.2194 35.1867 93.2194 32.68V15.92H100.059ZM128.383 24.84C129.049 23.8 129.969 22.96 131.143 22.32C132.316 21.68 133.689 21.36 135.263 21.36C137.103 21.36 138.769 21.8267 140.263 22.76C141.756 23.6933 142.929 25.0267 143.783 26.76C144.663 28.4933 145.103 30.5067 145.103 32.8C145.103 35.0933 144.663 37.12 143.783 38.88C142.929 40.6133 141.756 41.96 140.263 42.92C138.769 43.8533 137.103 44.32 135.263 44.32C133.716 44.32 132.343 44 131.143 43.36C129.969 42.72 129.049 41.8933 128.383 40.88V54.64H121.543V21.68H128.383V24.84ZM138.143 32.8C138.143 31.0933 137.663 29.76 136.703 28.8C135.769 27.8133 134.609 27.32 133.223 27.32C131.863 27.32 130.703 27.8133 129.743 28.8C128.809 29.7867 128.343 31.1333 128.343 32.84C128.343 34.5467 128.809 35.8933 129.743 36.88C130.703 37.8667 131.863 38.36 133.223 38.36C134.583 38.36 135.743 37.8667 136.703 36.88C137.663 35.8667 138.143 34.5067 138.143 32.8Z" fill="#FEF0FF" id="textClr"/>
<path d="M164 12L178.722 27H149.278L164 12Z" fill="#EE07FF"/>
<path d="M175 49L160.278 34H189.722L175 49Z" fill="#FEF0FF" id="lowenTrianlge"/>
</svg>
