<svg width="344" height="341" viewBox="0 0 344 341" fill="none" xmlns="http://www.w3.org/2000/svg">
<path d="M348.422 168.545C335.756 162.576 328.126 163.37 321.163 163.775C315.06 164.41 309.555 164.8 301.243 160.883C292.93 156.966 290.123 152.659 286.331 147.361C282.279 141.589 277.966 135.344 265.299 129.375C252.633 123.406 245.003 124.2 238.04 124.605C231.937 125.24 226.432 125.63 218.12 121.713C209.807 117.796 207 113.489 203.208 108.191C199.156 102.419 194.843 96.1739 182.176 90.2051C169.51 84.2364 161.88 85.0297 154.917 85.435C148.814 86.0697 143.309 86.46 134.997 82.543C127.08 78.8125 123.877 74.3187 120.085 69.021C116.033 63.2494 111.72 57.0039 99.0534 51.0352C86.3871 45.0664 78.7574 45.8598 71.7943 46.2651C65.6906 46.8998 60.1858 47.29 51.8735 43.3731C43.957 39.6426 40.7537 35.1488 36.9618 29.851C32.9095 24.0794 28.5968 17.834 15.9304 11.8652C13.5555 10.7461 11.7014 10.5746 11.2953 11.4365C10.8891 12.2984 12.2016 13.6191 14.5766 14.7382C22.4931 18.4687 25.6964 22.9625 29.4882 28.2603C33.5406 34.0319 37.8533 40.2773 50.5197 46.246C63.186 52.2148 70.8157 51.4214 77.7787 51.0161C83.8825 50.3814 89.3873 49.9912 97.6996 53.9082C106.012 57.8252 108.819 62.1324 112.611 67.4302C116.664 73.2018 120.976 79.4472 133.643 85.416C146.309 91.3847 153.939 90.5914 160.902 90.1861C167.005 89.5514 172.51 89.1611 180.823 93.0781C189.135 96.9951 191.942 101.302 195.734 106.6C199.787 112.372 204.099 118.617 216.766 124.586C229.432 130.555 237.062 129.761 244.025 129.356C250.129 128.721 255.633 128.331 263.946 132.248C272.258 136.165 275.065 140.472 278.857 145.77C282.91 151.542 287.222 157.787 299.889 163.756C312.555 169.725 320.185 168.931 327.148 168.526C333.252 167.891 338.756 167.501 347.069 171.418C349.444 172.537 351.298 172.709 351.704 171.847C352.11 170.985 350.797 169.664 348.422 168.545Z" stroke="url(#paint0_linear_21_245)" stroke-width="21"/>
<path d="M362.422 323.544C349.756 317.575 342.126 318.369 335.163 318.774C329.059 319.409 323.555 319.799 315.242 315.882C306.93 311.965 304.123 307.658 300.331 302.36C296.278 296.588 291.966 290.343 279.299 284.374C266.633 278.405 259.003 279.199 252.04 279.604C245.936 280.239 240.432 280.629 232.119 276.712C223.807 272.795 220.999 268.488 217.208 263.19C213.155 257.418 208.843 251.173 196.176 245.204C183.51 239.235 175.88 240.029 168.917 240.434C162.813 241.069 157.309 241.459 148.996 237.542C141.08 233.811 137.876 229.318 134.085 224.02C130.032 218.248 125.72 212.003 113.053 206.034C100.387 200.065 92.7572 200.859 85.7941 201.264C79.6904 201.899 74.1856 202.289 65.8733 198.372C57.9568 194.641 54.7535 190.148 50.9616 184.85C46.9093 179.078 42.5965 172.833 29.9302 166.864C27.5552 165.745 25.7012 165.573 25.295 166.435C24.8889 167.297 26.2014 168.618 28.5763 169.737C36.4928 173.468 39.6961 177.961 43.488 183.259C47.5403 189.031 51.8531 195.276 64.5194 201.245C77.1858 207.214 84.8154 206.42 91.7785 206.015C97.8822 205.38 103.387 204.99 111.699 208.907C120.012 212.824 122.819 217.131 126.611 222.429C130.663 228.201 134.976 234.446 147.642 240.415C160.309 246.384 167.938 245.59 174.902 245.185C181.005 244.55 186.51 244.16 194.822 248.077C203.135 251.994 205.942 256.301 209.734 261.599C213.786 267.371 218.099 273.616 230.765 279.585C243.432 285.554 251.061 284.76 258.025 284.355C264.128 283.72 269.633 283.33 277.945 287.247C286.258 291.164 289.065 295.471 292.857 300.769C296.909 306.541 301.222 312.786 313.888 318.755C326.555 324.724 334.184 323.93 341.148 323.525C347.251 322.89 352.756 322.5 361.068 326.417C363.443 327.536 365.297 327.708 365.704 326.846C366.11 325.984 364.797 324.663 362.422 323.544Z" stroke="url(#paint1_linear_21_245)" stroke-width="21"/>
<path d="M450.422 290.544C437.755 284.575 430.126 285.369 423.163 285.774C417.059 286.409 411.554 286.799 403.242 282.882C394.93 278.965 392.122 274.658 388.33 269.36C384.278 263.588 379.965 257.343 367.299 251.374C354.632 245.405 347.003 246.199 340.04 246.604C333.936 247.239 328.431 247.629 320.119 243.712C311.807 239.795 308.999 235.488 305.207 230.19C301.155 224.418 296.842 218.173 284.176 212.204C271.509 206.236 263.88 207.029 256.917 207.434C250.813 208.069 245.308 208.459 236.996 204.542C229.079 200.812 225.876 196.318 222.084 191.02C218.032 185.249 213.719 179.003 201.053 173.034C188.386 167.066 180.757 167.859 173.794 168.264C167.69 168.899 162.185 169.289 153.873 165.372C145.956 161.642 142.753 157.148 138.961 151.85C134.909 146.079 130.596 139.833 117.93 133.864C115.555 132.745 113.701 132.574 113.295 133.436C112.888 134.298 114.201 135.618 116.576 136.737C124.492 140.468 127.696 144.962 131.488 150.259C135.54 156.031 139.853 162.276 152.519 168.245C165.185 174.214 172.815 173.421 179.778 173.015C185.882 172.381 191.387 171.99 199.699 175.907C208.011 179.824 210.819 184.132 214.61 189.429C218.663 195.201 222.976 201.446 235.642 207.415C248.308 213.384 255.938 212.591 262.901 212.185C269.005 211.551 274.51 211.16 282.822 215.077C291.134 218.994 293.942 223.302 297.734 228.599C301.786 234.371 306.099 240.616 318.765 246.585C331.431 252.554 339.061 251.76 346.024 251.355C352.128 250.72 357.633 250.33 365.945 254.247C374.257 258.164 377.065 262.471 380.857 267.769C384.909 273.541 389.222 279.786 401.888 285.755C414.554 291.724 422.184 290.93 429.147 290.525C435.251 289.89 440.756 289.5 449.068 293.417C451.443 294.536 453.297 294.708 453.703 293.846C454.109 292.984 452.797 291.663 450.422 290.544Z" stroke="url(#paint2_linear_21_245)" stroke-width="21"/>
<defs>
<linearGradient id="paint0_linear_21_245" x1="182.176" y1="90.2051" x2="175.204" y2="105.001" gradientUnits="userSpaceOnUse">
<stop stop-color="#47004C" stop-opacity="0.61"/>
<stop offset="1" stop-color="#770080"/>
</linearGradient>
<linearGradient id="paint1_linear_21_245" x1="196.176" y1="245.204" x2="189.204" y2="260" gradientUnits="userSpaceOnUse">
<stop stop-color="#47004C" stop-opacity="0.61"/>
<stop offset="1" stop-color="#770080"/>
</linearGradient>
<linearGradient id="paint2_linear_21_245" x1="284.176" y1="212.204" x2="277.203" y2="227" gradientUnits="userSpaceOnUse">
<stop stop-color="#47004C" stop-opacity="0.61"/>
<stop offset="1" stop-color="#770080"/>
</linearGradient>
</defs>
</svg>
